<svg version="1.1" id="Layer_1" xmlns="http://www.w3.org/2000/svg" xmlns:xlink="http://www.w3.org/1999/xlink" x="0px" y="0px" width="947px" height="247px" viewBox="0 0 947 247" xml:space="preserve">
	
<path fill="#231F20" d="M72.753,150.795c-36.813,0-64.379-27.476-64.379-65.102c0-37.625,27.566-65.101,64.379-65.101s64.379,27.476,64.379,65.101C137.132,123.319,109.566,150.795,72.753,150.795z M72.753,32.143c-31.753,0-50.771,25.025-50.771,53.551S41,139.244,72.753,139.244s50.771-25.025,50.771-53.551S104.506,32.143,72.753,32.143z"/>
<path fill="#231F20" d="M157.2,15.342h11.515v64.051h0.349c7.502-11.025,20.936-15.75,31.753-15.75c25.472,0,43.442,18.375,43.442,43.051s-17.97,43.05-43.442,43.05c-10.817,0-24.251-4.725-31.753-15.75h-0.349v13.65H157.2V15.342z M200.818,74.143c-18.843,0-32.626,14.175-32.626,32.551s13.783,32.55,32.626,32.55c19.017,0,30.881-14.175,30.881-32.55S219.835,74.143,200.818,74.143z"/>
<path fill="#231F20" d="M306.199,85.168c-3.489-6.65-9.247-11.025-17.622-11.025c-8.025,0-16.923,3.5-16.923,12.25c0,7.7,5.409,10.5,16.051,12.95l11.689,2.8c11.34,2.625,19.889,10.851,19.889,22.4c0,17.851-15.876,25.2-31.753,25.2c-12.388,0-23.728-4.375-31.405-15.925l9.945-6.825c4.711,7.35,11.864,12.25,21.46,12.25c9.421,0,19.191-4.199,19.191-13.65c0-8.225-6.979-11.025-15.528-13.125l-11.166-2.625c-5.583-1.4-20.936-5.95-20.936-21.525c0-16.975,14.83-24.675,30.183-24.675c11.34,0,21.983,4.025,27.217,14.7L306.199,85.168z"/>
<path fill="#231F20" d="M344.758,42.643c-4.187,0-8.374-3.5-8.374-8.4c0-4.9,4.187-8.4,8.374-8.4c4.188,0,8.375,3.5,8.375,8.4C353.133,39.143,348.945,42.643,344.758,42.643z M350.516,147.645H339V65.743h11.515V147.645z"/>
<path fill="#231F20" d="M458.86,147.645h-11.516v-13.65h-0.349c-7.502,11.025-20.937,15.75-31.753,15.75c-25.473,0-43.443-18.375-43.443-43.05s17.971-43.051,43.443-43.051c10.816,0,24.251,4.725,31.753,15.75h0.349V15.342h11.516V147.645z M415.243,139.244c18.843,0,32.625-14.175,32.625-32.55s-13.782-32.551-32.625-32.551c-19.018,0-30.881,14.175-30.881,32.551S396.226,139.244,415.243,139.244z"/>
<path fill="#231F20" d="M491.488,42.643c-4.188,0-8.375-3.5-8.375-8.4c0-4.9,4.188-8.4,8.375-8.4s8.374,3.5,8.374,8.4C499.862,39.143,495.676,42.643,491.488,42.643z M497.245,147.645H485.73V65.743h11.515V147.645z"/>
<path fill="#231F20" d="M576.454,97.418v-2.1c0-14.175-6.804-21.176-20.937-21.176c-9.596,0-17.97,3.325-24.948,9.625l-6.979-8.225c7.502-7.7,19.191-11.9,34.545-11.9c16.052,0,29.834,9.1,29.834,29.05v36.576c0,6.3,0.698,14,1.396,18.375h-11.166c-0.698-4.025-1.047-8.926-1.047-13.301h-0.35c-6.629,10.851-15.702,15.4-28.787,15.4c-14.48,0-28.09-8.05-28.09-23.975c0-26.601,31.23-28.351,50.771-28.351H576.454z M570.522,106.869c-11.689,0-38.034,0.875-38.034,17.326c0,10.851,9.944,15.05,19.191,15.05c16.749,0,24.774-11.9,24.774-26.425v-5.95H570.522z"/>
<path fill="#231F20" d="M624.784,65.743c0.523,4.375,0.523,8.75,0.523,13.125h0.349c5.06-8.925,16.574-15.225,27.392-15.225c20.762,0,30.706,11.725,30.706,32.025v51.976h-11.515v-45.326c0-18.2-5.06-28.176-22.157-28.176c-2.442,0-24.774,1.575-24.774,31.5v42.001h-11.516V83.769c0-4.375-0.523-12.075-0.872-18.025H624.784z"/>
<path fill="#231F20" d="M265.117,175.361h6.891v44.5h23.328v6.48h-30.218V175.361z"/>
<path fill="#231F20" d="M308.259,175.361h32.802v6.48h-25.912v15.193h24.117v6.48h-24.117v16.346h27.204v6.48h-34.094V175.361z"/>
<path fill="#231F20" d="M375.446,175.361h6.245l21.749,50.98H395.4l-5.096-12.602h-24.189l-5.024,12.602h-8.039L375.446,175.361z M387.792,207.692l-9.475-23.402h-0.144l-9.618,23.402H387.792z"/>
<path fill="#231F20" d="M414.928,175.361h17.873c12.992,0,16.293,7.849,16.293,14.258c0,6.48-4.809,12.601-12.488,13.465l14.427,23.258h-8.613l-12.92-22.466h-7.681v22.466h-6.891V175.361z M421.818,197.827h9.045c5.455,0,10.91-1.296,10.91-8.208c0-6.913-5.455-8.209-10.91-8.209h-9.045V197.827z"/>
<path fill="#231F20" d="M464.889,175.361h9.045l27.992,41.908h0.145v-41.908h6.891v50.98h-8.758l-28.279-41.908h-0.145v41.908h-6.891V175.361z"/>
<path fill="#231F20" d="M523.322,175.361h6.891v50.98h-6.891V175.361z"/>
<path fill="#231F20" d="M545.359,175.361h9.043l27.994,41.908h0.143v-41.908h6.891v50.98h-8.756l-28.281-41.908h-0.143v41.908h-6.891V175.361z"/>

<path fill="#231F20" d="M648.65,197.827v25.13c-4.953,3.025-13.063,4.681-19.236,4.681c-17.227,0-27.203-12.313-27.203-26.786c0-15.121,10.981-26.786,26.485-26.786c9.331,0,15.001,2.521,18.949,6.624l-4.881,5.257c-4.163-4.032-8.972-5.4-14.068-5.4c-11.628,0-19.165,9.145-19.165,20.306c0,11.521,8.542,20.306,19.739,20.306c4.81,0,9.403-0.937,12.489-2.664v-14.185h-11.27v-6.481H648.65z"/>

<path fill="#066895" d="M916.584,42.406C894.157,16.438,860.993,0,823.981,0c-67.562,0-122.29,54.769-122.29,122.311c0,14.994,2.703,29.356,7.641,42.634C769.616,91.989,836.329,61.277,916.584,42.406z"/>

<path fill="#066895" d="M920.551,47.248c-83.785,55.428-114.224,164.374-122.103,194.697c8.234,1.75,16.774,2.678,25.533,2.678c67.562,0,122.311-54.779,122.311-122.312C946.292,94.019,936.682,67.971,920.551,47.248z"/>

<path fill="#066895" d="M712.613,172.9c14.593,32.088,42.642,56.759,76.946,66.804C789.588,193.146,776.833,152.682,712.613,172.9z"/>

</svg>
